<?xml version="1.0" encoding="utf-8"?>
<!-- Generator: Adobe Illustrator 18.0.0, SVG Export Plug-In . SVG Version: 6.00 Build 0)  -->
<!DOCTYPE svg PUBLIC "-//W3C//DTD SVG 1.1//EN" "http://www.w3.org/Graphics/SVG/1.1/DTD/svg11.dtd" [
	<!ENTITY ns_extend "http://ns.adobe.com/Extensibility/1.0/">
	<!ENTITY ns_ai "http://ns.adobe.com/AdobeIllustrator/10.0/">
	<!ENTITY ns_graphs "http://ns.adobe.com/Graphs/1.0/">
	<!ENTITY ns_vars "http://ns.adobe.com/Variables/1.0/">
	<!ENTITY ns_imrep "http://ns.adobe.com/ImageReplacement/1.0/">
	<!ENTITY ns_sfw "http://ns.adobe.com/SaveForWeb/1.0/">
	<!ENTITY ns_custom "http://ns.adobe.com/GenericCustomNamespace/1.0/">
	<!ENTITY ns_adobe_xpath "http://ns.adobe.com/XPath/1.0/">
]>
<svg version="1.1" id="Layer_1" xmlns:x="&ns_extend;" xmlns:i="&ns_ai;" xmlns:graph="&ns_graphs;"
	 xmlns="http://www.w3.org/2000/svg" xmlns:xlink="http://www.w3.org/1999/xlink" x="0px" y="0px"
	 viewBox="0 0 140.4403534 45.7285652" enable-background="new 0 0 140.4403534 45.7285652" xml:space="preserve">
<metadata>
	<sfw  xmlns="&ns_sfw;">
		<slices></slices>
		<sliceSourceBounds  width="140.4403534" height="45.7285652" bottomLeftOrigin="true" x="570.1622925" y="-383.7337341">
			</sliceSourceBounds>
	</sfw>
</metadata>
<rect x="1.4063754" y="1.4063531" fill="#FFFFFF" stroke="#000000" stroke-width="2.8127332" stroke-miterlimit="10" width="137.6276245" height="42.9158325"/>
<g>
	<g>
		<path d="M56.7016258,15.3672123l3.0625,10.1367188l3.0625-10.1367188h3.3789024l-4.8574181,14.7832031h-2.9570312
			l-3.1679688-9.9262695l-3.1669922,9.9262695h-2.9570312l-4.8564453-14.7832031h3.3789062l3.0615234,10.1367188l3.0625-10.1367188
			H56.7016258z"/>
		<path d="M71.4867783,30.3613529c-2.9560547,0-5.4902344-2.5341797-5.4902344-5.3847656
			c0-2.8515625,2.5341797-5.3857422,5.4902344-5.3857422c2.9570312,0,5.4912109,2.5341797,5.4912109,5.3857422
			C76.9779892,27.8271732,74.4438095,30.3613529,71.4867783,30.3613529z M71.4867783,27.7217045
			c1.3730469,0,2.5341797-1.1611328,2.5341797-2.7451172s-1.1611328-2.7460938-2.5341797-2.7460938
			c-1.3720703,0-2.5341797,1.1621094-2.5341797,2.7460938S70.1147079,27.7217045,71.4867783,27.7217045z"/>
		<path d="M84.8988876,22.5473881c0,0-0.3164062-0.1054688-0.9501953-0.1054688
			c-1.4785156,0-2.4287109,0.9506836-2.4287109,2.7456055v4.9628906h-2.8515625V19.8022709h2.8515625v1.2666016
			c0,0,1.0556641-1.3725586,2.9560547-1.3725586h0.4228516V22.5473881z"/>
		<path d="M89.0170517,27.6162357v2.5341797h-2.8505859V15.3672123h2.8505859v8.6591797l3.6953125-4.2241211h3.2734375
			l-3.90625,4.4350586l4.1181641,5.9130859H93.029747l-2.7460938-4.0126953L89.0170517,27.6162357z"/>
	</g>
</g>
</svg>
