<?xml version="1.0" encoding="utf-8"?>
<!-- Generator: Adobe Illustrator 18.0.0, SVG Export Plug-In . SVG Version: 6.00 Build 0)  -->
<!DOCTYPE svg PUBLIC "-//W3C//DTD SVG 1.1//EN" "http://www.w3.org/Graphics/SVG/1.1/DTD/svg11.dtd" [
	<!ENTITY ns_extend "http://ns.adobe.com/Extensibility/1.0/">
	<!ENTITY ns_ai "http://ns.adobe.com/AdobeIllustrator/10.0/">
	<!ENTITY ns_graphs "http://ns.adobe.com/Graphs/1.0/">
	<!ENTITY ns_vars "http://ns.adobe.com/Variables/1.0/">
	<!ENTITY ns_imrep "http://ns.adobe.com/ImageReplacement/1.0/">
	<!ENTITY ns_sfw "http://ns.adobe.com/SaveForWeb/1.0/">
	<!ENTITY ns_custom "http://ns.adobe.com/GenericCustomNamespace/1.0/">
	<!ENTITY ns_adobe_xpath "http://ns.adobe.com/XPath/1.0/">
]>
<svg version="1.1" id="Layer_1" xmlns:x="&ns_extend;" xmlns:i="&ns_ai;" xmlns:graph="&ns_graphs;"
	 xmlns="http://www.w3.org/2000/svg" xmlns:xlink="http://www.w3.org/1999/xlink" x="0px" y="0px"
	 viewBox="0 0 119.2759857 31.1031704" enable-background="new 0 0 119.2759857 31.1031704" xml:space="preserve">
<metadata>
	<sfw  xmlns="&ns_sfw;">
		<slices></slices>
		<sliceSourceBounds  width="119.2759857" height="31.1031704" y="-1515.7756348" x="580.7749023" bottomLeftOrigin="true">
			</sliceSourceBounds>
	</sfw>
</metadata>
<g>
	<path d="M0,29.7779942h3.078258c1.9666266,0,3.3988471-0.4627686,4.2966609-1.3894024
		c0.8978138-0.9260845,1.346858-2.4296684,1.346858-4.5107517V10.5602217c0-1.4248095-0.0823431-2.4617834-0.2459316-3.1103721
		C8.3119831,6.8015351,7.9804149,6.2495623,7.4819651,5.793107C6.4985142,4.8527493,5.0448847,4.3822961,3.1210766,4.3822961
		H0.8335863v-0.748224c1.7242637-0.0853624,3.2813711-0.2385204,4.670773-0.4594743
		c1.3896766-0.2206795,2.654191-0.5269957,3.7943678-0.9192231c1.1401777-0.3916786,2.3728533-0.9367896,3.6983013-1.6353333
		h1.4536304v23.9846134c0,3.4490757,1.8524437,5.1733398,5.5578823,5.1733398h2.8430309v0.7910423H0V29.7779942z"/>
	<path d="M46.9104347,0.1070442l0.0856361,0.5129973c-0.7268143,1.0688128-1.4322205,1.9062419-2.1164894,2.5117378
		c-0.6839981,0.606045-1.589222,1.2008362-2.7148514,1.7849231c-1.2969017,0.6557255-2.7466888,1.1544499-4.3501854,1.496448
		c-1.6032181,0.3419981-3.3170509,0.5129972-5.1409492,0.5129972c-1.8244495,0-3.7910748-0.1567264-5.8998814-0.4701786
		l-1.2826309,8.6575489c2.0094452-1.1544495,3.6447792-1.9309444,4.9060001-2.3300333
		c1.2612209-0.3988152,2.7466888-0.5986347,4.456955-0.5986347c1.5389938,0,2.9569397,0.1320238,4.2538414,0.3955212
		c1.2966309,0.263772,2.4691963,0.6518831,3.5165977,1.1648798c1.0474052,0.5129976,1.9630585,1.1618605,2.7469673,1.9452181
		c0.8121758,0.7984533,1.4390793,1.7138338,1.8809891,2.7469645c0.4416313,1.0334053,0.6625862,2.0846519,0.6625862,3.1534653
		c0,2.2518082-0.8195877,4.161068-2.4582138,5.7288799c-2.5652618,2.5224438-6.3703346,3.78339-11.4152184,3.78339
		c-1.5107231,0-3.0033264-0.1570015-4.4783649-0.4699039c-1.4750385-0.3134537-2.654192-0.7125435-3.5377331-1.1972694
		c-0.9549046-0.5560894-1.6924248-1.2324009-2.2125568-2.0305786c-0.5204086-0.7981796-0.7803383-1.65345-0.7803383-2.5652618
		c0-1.0545406,0.3491344-1.9240818,1.047678-2.608078c0.6979942-0.6839981,1.5604-1.0259953,2.5863953-1.0259953
		c0.6839962,0,1.2897663,0.1460209,1.8170376,0.4380646c0.5269947,0.2920437,0.9477673,0.6949749,1.2612209,1.2076988
		c0.3134518,0.5132713,0.4704533,1.083086,0.4704533,1.7099915c0,1.2543583-0.6557255,2.2375355-1.9666271,2.9500771
		c-0.5558147,0.3140011-0.8338604,0.6060448-0.8338604,0.8766785c0,0.4699039,0.5947914,0.9013824,1.7849236,1.293335
		c1.1898575,0.3919525,2.5117378,0.5879307,3.9653683,0.5879307c2.6648941,0,4.6208153-0.7163849,5.8680382-2.1486053
		c1.2466736-1.4322205,1.870285-3.6801872,1.870285-6.7444458c0-1.7813549-0.2744751-3.2920761-0.8228798-4.5318871
		c-0.5486794-1.2398129-1.3718338-2.1873074-2.4689178-2.8430328c-1.0976334-0.6554499-2.3802643-0.9834499-3.8478928-0.9834499
		c-0.9694519,0-1.8812656,0.1070461-2.7362595,0.3208628c-0.8549957,0.2135439-1.7495155,0.555542-2.6827374,1.0259953
		c-0.9334965,0.4701786-1.9276524,1.0688124-2.9819164,1.7956266h-0.7482243l2.2872162-16.160923
		c1.0259933,0.3422727,1.9309444,0.5772249,2.7148495,0.70568c2.166172,0.3845421,4.5887032,0.5769504,7.2681465,0.5769504
		c1.3109016,0,2.5364418-0.0389757,3.6766205-0.1174761c1.1401749-0.078226,2.2372589-0.2064067,3.2920761-0.3848166
		C44.9081268,0.6024749,45.9269829,0.3779528,46.9104347,0.1070442z"/>
	<path d="M78.8378601,31.1031685c-2.3511734,0-4.5206375-0.6801548-6.5089417-2.0415592
		c-1.9877625-1.3603077-3.5522842-3.2278481-4.6919098-5.6004257c-1.1407242-2.3725777-1.7105408-4.9773636-1.7105408-7.8132591
		c0-2.8218966,0.5626755-5.4261332,1.6891327-7.8132586c1.125351-2.3868508,2.6503448-4.2645469,4.5744324-5.6328144
		c1.9240799-1.3679926,4.0540237-2.0519891,6.3914642-2.0519891c0.9118118,0,1.8494263,0.1317489,2.8111954,0.3952467
		c0.9617615,0.2640467,1.894989,0.6664299,2.800209,1.2079726c0.9046783,0.5418173,1.7346954,1.1901318,2.4906082,1.9452177
		c1.4393539,1.4108112,2.5504379,3.1424854,3.334343,5.1944752c0.783905,2.0522633,1.1758575,4.3040714,1.1758575,6.7551498
		c0,1.4961739-0.1493149,2.9251003-0.4490433,4.2862301c-0.2991791,1.360857-0.7443848,2.6256466-1.3356018,3.7943687
		c-0.591774,1.1687222-1.3257294,2.2375355-2.2018585,3.20644c-0.8766785,0.9694519-1.8422852,1.7742176-2.8968277,2.4153957
		C82.4296646,30.5190811,80.6049423,31.1031685,78.8378601,31.1031685z M72.9810715,12.8902559v5.5578814
		c0,4.0759811,0.4556351,7.0864449,1.3679962,9.0319366c0.9118118,1.9449425,2.3226166,2.9176884,4.2324295,2.9176884
		c3.7054367,0,5.5581589-3.6768913,5.5581589-11.0304012v-5.7074728c0-1.6531734-0.0538025-3.1814613-0.1602936-4.5854101
		c-0.107048-1.4034004-0.2459335-2.4400997-0.4172058-3.1103721c-0.7268143-3.3486178-2.401123-5.0234756-5.0234756-5.0234756
		c-1.3109055,0-2.3725815,0.4136367-3.1850281,1.2398121c-0.8124542,0.8267243-1.4108124,2.1024926-1.7956314,3.8264821
		C73.1732025,7.7314625,72.9810715,10.025815,72.9810715,12.8902559z"/>
	<path d="M108.9084473,14.536293V14.493475v0.0856371c2.2369843,0.3279991,3.8547516,0.7128162,4.8522034,1.1541748
		c1.2115402,0.4704542,2.2265549,1.0405416,3.0461426,1.7102652c0.8195877,0.6699982,1.4355164,1.4357891,1.8494263,2.2979202
		c0.4128113,0.8624077,0.6197662,1.7851982,0.6197662,2.7683735c0,1.6819954-0.5807877,3.1713066-1.7423782,4.4679356
		c-1.1615829,1.296629-2.8073502,2.3017635-4.9378357,3.0137558c-2.1304932,0.7125416-4.5425949,1.0688133-7.2357635,1.0688133
		c-1.5392609,0-3.0538254-0.1570015-4.5425873-0.4699059c-1.4893112-0.3134518-2.6761551-0.7125416-3.5594177-1.1972675
		c-0.954628-0.5698128-1.7209702-1.3037643-2.2979202-2.2018528c-0.5769501-0.8975391-0.8656998-1.8027649-0.8656998-2.7145767
		c0-1.0545406,0.3419952-1.9312191,1.0259933-2.629488s1.5392685-1.0474033,2.5652618-1.0474033
		c1.0117188,0,1.8346024,0.3172951,2.4691925,0.9513359c0.6334915,0.6340427,0.9507904,1.4289265,0.9507904,2.3835583
		c0,0.5983582-0.1388855,1.1220608-0.4166565,1.571104c-0.277771,0.4484959-0.7372437,0.8871098-1.3789749,1.3147449
		c-0.6126328,0.3848171-0.9189453,0.7339516-0.9189453,1.0474033c0,0.6411781,0.6230621,1.1687222,1.870285,1.5815353
		c1.2472229,0.4139118,2.7969208,0.6203194,4.6496353,0.6203194c2.608078,0,4.5102081-0.5846367,5.7074738-1.7533588
		c1.2823563-1.3388977,1.8455811-3.2843914,1.6885834-5.8353786c-0.170723-2.907259-0.8119049-4.8881588-1.9235382-5.9429741
		c-1.1544495-1.1116304-2.8007584-1.6674461-4.938385-1.6674461c-0.5269928,0-1.4893112,0.0570917-2.885849,0.1709995
		c-0.384819,0.0570908-0.7690887,0.0856361-1.1539001,0.0856361c-0.8124542,0-1.2186813-0.2492247-1.2186813-0.7482233
		c0-0.4844522,0.4556351-0.7268152,1.3679962-0.7268152c0.1712723,0,0.6483154,0.0425444,1.4322205,0.1281805
		c1.0117188,0.1141825,1.8455811,0.1709995,2.50103,0.1709995c1.268631,0,2.2874908-0.2031126,3.0571289-0.6093388
		c0.7696304-0.4059515,1.3284607-1.0506973,1.6781464-1.9345131c0.348587-0.8835411,0.5237045-2.0948076,0.5237045-3.6340737
		c0-0.8549953-0.0719147-1.6353331-0.2140961-2.3407388c-0.1427231-0.7054057-0.3452911-1.3430152-0.6093369-1.9131038
		c-0.2634964-0.569814-0.5873795-1.0331309-0.9721985-1.3894019c-0.9694519-0.9691777-2.3588486-1.4536295-4.1687546-1.4536295
		c-1.0830841,0-2.0948029,0.1210443-3.0351639,0.3634073c-0.9409027,0.2423631-1.6995621,0.5593839-2.2770615,0.9510624
		c-0.5769501,0.3922274-0.8656998,0.8017468-0.8656998,1.2293818c0,0.2280903,0.0713654,0.416656,0.2140961,0.5662458
		c0.1421738,0.1498644,0.4062271,0.3387043,0.7910385,0.5665205c0.6691742,0.3279996,1.1539001,0.7161102,1.4536285,1.165154
		c0.2991791,0.44877,0.4485016,1.0152903,0.4485016,1.6992865c0,0.9406323-0.3096161,1.7138333-0.9299316,2.3193297
		c-0.6197662,0.6060448-1.3926926,0.9085188-2.3193283,0.9085188c-0.9831772,0-1.8060608-0.3381557-2.4686432-1.0152903
		c-0.6631393-0.6765852-0.9941559-1.5071526-0.9941559-2.4903288c0-1.3682671,0.4737473-2.5935321,1.4212418-3.6768923
		c0.9480438-1.0828111,2.2803497-1.92024,3.9974823-2.5117378c1.7171249-0.5912231,3.6664581-0.8871092,5.8469009-0.8871092
		c2.2512589,0,4.2181625,0.3098844,5.8996048,0.9299276c1.6814499,0.6200432,2.9857635,1.5035841,3.91185,2.6506231
		c0.9266281,1.1473134,1.389946,2.4903286,1.389946,4.0295954c0,0.9691772-0.2031097,1.8634233-0.6093369,2.6827364
		c-0.4062271,0.8195887-1.0084305,1.5285616-1.8066101,2.1269217c-0.9118118,0.6839962-2.1947098,1.2258139-3.8476105,1.624629
		C110.5898895,14.2085676,109.8916245,14.3512955,108.9084473,14.536293z"/>
	<g>
		<g>
			<path d="M56.7200737,20.1396523c0.9826279,0,1.8203316,0.3387032,2.5114632,1.015564
				c0.6911316,0.6768589,1.0369759,1.5068779,1.0369759,2.4900532c0,0.9694538-0.3496857,1.7956276-1.0474052,2.4796238
				c-0.6988182,0.6839981-1.5184059,1.0265446-2.4582138,1.0265446c-0.9409065,0-1.7604942-0.3496838-2.4587669-1.0479527
				c-0.6982689-0.6977196-1.0474014-1.5173092-1.0474014-2.4582157c0-0.9260845,0.3452911-1.7418289,1.036972-2.4472351
				C54.9848328,20.4920788,55.7934418,20.1396523,56.7200737,20.1396523z M56.7200737,4.9407692
				c1.0111732,0,1.8560143,0.3387046,2.5328712,1.0155644c0.6768608,0.6768599,1.0155678,1.5068779,1.0155678,2.4900537
				c0,0.9409075-0.3419991,1.7533588-1.0265465,2.437355c-0.6839943,0.6839962-1.5107193,1.0259943-2.4790726,1.0259943
				c-0.9409065,0-1.7533607-0.3419981-2.437355-1.0259943c-0.6839981-0.6839962-1.0259972-1.4964476-1.0259972-2.437355
				c0-0.9260845,0.338707-1.7418299,1.0155678-2.4472351C54.9919662,5.2937465,55.7934418,4.9407692,56.7200737,4.9407692z"/>
		</g>
	</g>
</g>
</svg>
