<?xml version="1.0" encoding="utf-8"?>
<!-- Generator: Adobe Illustrator 18.0.0, SVG Export Plug-In . SVG Version: 6.00 Build 0)  -->
<!DOCTYPE svg PUBLIC "-//W3C//DTD SVG 1.1//EN" "http://www.w3.org/Graphics/SVG/1.1/DTD/svg11.dtd" [
	<!ENTITY ns_extend "http://ns.adobe.com/Extensibility/1.0/">
	<!ENTITY ns_ai "http://ns.adobe.com/AdobeIllustrator/10.0/">
	<!ENTITY ns_graphs "http://ns.adobe.com/Graphs/1.0/">
	<!ENTITY ns_vars "http://ns.adobe.com/Variables/1.0/">
	<!ENTITY ns_imrep "http://ns.adobe.com/ImageReplacement/1.0/">
	<!ENTITY ns_sfw "http://ns.adobe.com/SaveForWeb/1.0/">
	<!ENTITY ns_custom "http://ns.adobe.com/GenericCustomNamespace/1.0/">
	<!ENTITY ns_adobe_xpath "http://ns.adobe.com/XPath/1.0/">
]>
<svg version="1.1" id="Capa_1" xmlns:x="&ns_extend;" xmlns:i="&ns_ai;" xmlns:graph="&ns_graphs;"
	 xmlns="http://www.w3.org/2000/svg" xmlns:xlink="http://www.w3.org/1999/xlink" x="0px" y="0px" viewBox="224.5 189.6 51 47.4"
	 enable-background="new 224.5 189.6 51 47.4" xml:space="preserve">
<metadata>
	<sfw  xmlns="&ns_sfw;">
		<slices></slices>
		<sliceSourceBounds  height="47.4" width="51" bottomLeftOrigin="true" x="607.5" y="1520"></sliceSourceBounds>
	</sfw>
</metadata>
<path fill="#A7A9AC" d="M275.4,203.7c-0.7-8.2-6.5-14.1-13.8-14.1c-4.8,0-9.3,2.6-11.8,6.8c-2.5-4.2-6.7-6.8-11.5-6.8
	c-7.3,0-13.1,5.9-13.8,14.1c-0.1,0.4-0.3,2.3,0.4,5.4c1.1,4.5,3.5,8.6,7.1,11.8l17.8,16.1l18.1-16.1c3.6-3.2,6-7.3,7.1-11.8
	C275.7,206,275.5,204.1,275.4,203.7z"/>
</svg>
