<?xml version="1.0" encoding="utf-8"?>
<!-- Generator: Adobe Illustrator 18.0.0, SVG Export Plug-In . SVG Version: 6.00 Build 0)  -->
<!DOCTYPE svg PUBLIC "-//W3C//DTD SVG 1.1//EN" "http://www.w3.org/Graphics/SVG/1.1/DTD/svg11.dtd" [
	<!ENTITY ns_extend "http://ns.adobe.com/Extensibility/1.0/">
	<!ENTITY ns_ai "http://ns.adobe.com/AdobeIllustrator/10.0/">
	<!ENTITY ns_graphs "http://ns.adobe.com/Graphs/1.0/">
	<!ENTITY ns_vars "http://ns.adobe.com/Variables/1.0/">
	<!ENTITY ns_imrep "http://ns.adobe.com/ImageReplacement/1.0/">
	<!ENTITY ns_sfw "http://ns.adobe.com/SaveForWeb/1.0/">
	<!ENTITY ns_custom "http://ns.adobe.com/GenericCustomNamespace/1.0/">
	<!ENTITY ns_adobe_xpath "http://ns.adobe.com/XPath/1.0/">
]>
<svg version="1.1" id="Layer_1" xmlns:x="&ns_extend;" xmlns:i="&ns_ai;" xmlns:graph="&ns_graphs;"
	 xmlns="http://www.w3.org/2000/svg" xmlns:xlink="http://www.w3.org/1999/xlink" x="0px" y="0px"
	 viewBox="0 0 95.4130859 89.7989502" enable-background="new 0 0 95.4130859 89.7989502" xml:space="preserve">
<metadata>
	<sfw  xmlns="&ns_sfw;">
		<slices></slices>
		<sliceSourceBounds  width="95.4130859" height="89.7989502" y="-1488.1396484" x="534.7877808" bottomLeftOrigin="true">
			</sliceSourceBounds>
	</sfw>
</metadata>
<path fill="#666666" d="M87.8982544,7.5147705C83.0385132,2.6688232,76.597229,0,69.7605591,0
	c-6.5914307,0-12.2244263,2.1170654-16.7438354,6.2949219c-2.0970459,1.9569092-3.8762817,4.2967529-5.3126831,6.9768066
	c-1.4552002-2.7052002-3.2456665-5.0462646-5.3439941-6.9805908C37.8481445,2.1170654,32.2276611,0,25.6525269,0
	C18.8496094,0,12.4096069,2.6676025,7.5110474,7.5198975C2.6676025,12.4095459,0,18.8483887,0,25.6524658
	c0,12.0993652,12.6410522,25.5863037,21.8675537,35.4284668l1.3563232,1.4588623
	c1.1861572,1.2738037,2.2684937,2.4349365,3.1518555,3.4158936l21.2994995,23.8432617L69.0298462,65.953125
	c1.3463135-1.5189209,2.8302612-3.0980225,4.4393311-4.807251c8.7385254-9.3115234,21.9439087-23.3815918,21.9439087-35.4934082
	C95.4130859,18.8133545,92.7454834,12.3734131,87.8982544,7.5147705z M88.19104,25.6524658
	c0,9.1853027-11.9091187,21.9453125-19.9519653,30.5661621c-1.7266846,1.8267822-3.3207397,3.5510254-4.5944824,4.9598389
	L47.706543,79.1434326L31.7734985,61.1834717c-1.4038696-1.5965576-2.9603882-3.2681885-4.6270142-5.0249023
	C19.2112427,47.697876,7.2207642,34.9102783,7.2207642,25.6524658c0-4.8934326,1.9231567-9.5167236,5.4140625-13.0175781
	c3.4909058-3.4909668,8.1141357-5.4140625,13.0177002-5.4140625c4.7383423,0,8.7160034,1.4664307,11.8252563,4.3604736
	c3.2506714,3.0067139,5.5654297,7.5587158,6.6953125,13.1702881c0.4016113,1.9532471,2.3985596,3.2231445,4.2466431,2.8178711
	c1.4626465-0.2966309,2.5875244-1.43396,2.862793-2.885376c1.1160889-5.5904541,3.4158325-10.1210938,6.6564941-13.1053467
	c3.1055298-2.8914795,7.0844116-4.3579102,11.8215332-4.3579102c4.9223022,0,9.5568237,1.9230957,13.0452271,5.4102783
	C86.2791748,16.131958,88.19104,20.755249,88.19104,25.6524658z"/>
</svg>
