<?xml version="1.0" encoding="utf-8"?>
<!-- Generator: Adobe Illustrator 18.0.0, SVG Export Plug-In . SVG Version: 6.00 Build 0)  -->
<!DOCTYPE svg PUBLIC "-//W3C//DTD SVG 1.1//EN" "http://www.w3.org/Graphics/SVG/1.1/DTD/svg11.dtd" [
	<!ENTITY ns_extend "http://ns.adobe.com/Extensibility/1.0/">
	<!ENTITY ns_ai "http://ns.adobe.com/AdobeIllustrator/10.0/">
	<!ENTITY ns_graphs "http://ns.adobe.com/Graphs/1.0/">
	<!ENTITY ns_vars "http://ns.adobe.com/Variables/1.0/">
	<!ENTITY ns_imrep "http://ns.adobe.com/ImageReplacement/1.0/">
	<!ENTITY ns_sfw "http://ns.adobe.com/SaveForWeb/1.0/">
	<!ENTITY ns_custom "http://ns.adobe.com/GenericCustomNamespace/1.0/">
	<!ENTITY ns_adobe_xpath "http://ns.adobe.com/XPath/1.0/">
]>
<svg version="1.1" id="Layer_1" xmlns:x="&ns_extend;" xmlns:i="&ns_ai;" xmlns:graph="&ns_graphs;"
	 xmlns="http://www.w3.org/2000/svg" xmlns:xlink="http://www.w3.org/1999/xlink" x="0px" y="0px"
	 viewBox="0 0 19.1220264 19.3452053" enable-background="new 0 0 19.1220264 19.3452053" xml:space="preserve">
<metadata>
	<sfw  xmlns="&ns_sfw;">
		<slices></slices>
		<sliceSourceBounds  height="19.3452053" width="19.1220264" bottomLeftOrigin="true" x="179.1114349" y="-1010.052002">
			</sliceSourceBounds>
	</sfw>
</metadata>
<g>
	<path fill-rule="evenodd" clip-rule="evenodd" d="M2.4541533,0h14.2135372c1.3498363,0,2.4542484,1.0105313,2.4542484,2.482892
		v14.3794203c0,1.472353-1.1044121,2.482893-2.4542484,2.482893H2.4541533c-1.3498291,0-2.4542408-1.01054-2.4542408-2.482893
		V2.482892C-0.0000875,1.0105313,1.1043242,0,2.4541533,0L2.4541533,0z M13.9297333,2.1491928
		c-0.4736757,0-0.8609533,0.3918011-0.8609533,0.8709898v2.085135c0,0.4791965,0.3872776,0.8710051,0.8609533,0.8710051h2.1616974
		c0.4726906,0,0.8599682-0.3918085,0.8599682-0.8710051v-2.085135c0-0.4791887-0.3872776-0.8709898-0.8599682-0.8709898H13.9297333z
		 M16.9609737,8.1808825h-1.6833706c0.1590347,0.525629,0.2454252,1.0832796,0.2454252,1.6595621
		c0,3.2180758-2.6613894,5.8268557-5.9439459,5.8268557c-3.2825494,0-5.9439421-2.6087799-5.9439421-5.8268557
		c0-0.5762825,0.0863945-1.1339331,0.245425-1.6595621H2.1252923v8.172183c0,0.4228363,0.3413837,0.7692051,0.7603242,0.7692051
		h13.3152771c0.4189377,0,0.7600803-0.3463688,0.7600803-0.7692051V8.1808825z M9.5790825,5.8658247
		c-2.1204667,0-3.8404026,1.6856432-3.8404026,3.7650652s1.7199359,3.7650576,3.8404026,3.7650576
		c2.1207209,0,3.8406572-1.6856356,3.8406572-3.7650576S11.7007847,5.8658247,9.5790825,5.8658247L9.5790825,5.8658247z
		 M9.5790825,5.8658247"/>
</g>
</svg>
