<?xml version="1.0" encoding="utf-8"?>
<!-- Generator: Adobe Illustrator 18.0.0, SVG Export Plug-In . SVG Version: 6.00 Build 0)  -->
<!DOCTYPE svg PUBLIC "-//W3C//DTD SVG 1.1//EN" "http://www.w3.org/Graphics/SVG/1.1/DTD/svg11.dtd" [
	<!ENTITY ns_extend "http://ns.adobe.com/Extensibility/1.0/">
	<!ENTITY ns_ai "http://ns.adobe.com/AdobeIllustrator/10.0/">
	<!ENTITY ns_graphs "http://ns.adobe.com/Graphs/1.0/">
	<!ENTITY ns_vars "http://ns.adobe.com/Variables/1.0/">
	<!ENTITY ns_imrep "http://ns.adobe.com/ImageReplacement/1.0/">
	<!ENTITY ns_sfw "http://ns.adobe.com/SaveForWeb/1.0/">
	<!ENTITY ns_custom "http://ns.adobe.com/GenericCustomNamespace/1.0/">
	<!ENTITY ns_adobe_xpath "http://ns.adobe.com/XPath/1.0/">
]>
<svg version="1.1" id="Layer_1" xmlns:x="&ns_extend;" xmlns:i="&ns_ai;" xmlns:graph="&ns_graphs;"
	 xmlns="http://www.w3.org/2000/svg" xmlns:xlink="http://www.w3.org/1999/xlink" x="0px" y="0px"
	 viewBox="0 0 112.3295898 35.175209" enable-background="new 0 0 112.3295898 35.175209" xml:space="preserve">
<metadata>
	<sfw  xmlns="&ns_sfw;">
		<slices></slices>
		<sliceSourceBounds  width="112.3295898" height="35.175209" x="1903.9321289" y="-2018.052124" bottomLeftOrigin="true">
			</sliceSourceBounds>
	</sfw>
</metadata>
<g>
	<path d="M76.9723969,24.3706188V0.7257831H65.8005447v0.920817h0.0942612c1.8105774,0,3.0648499,0.4271718,4.0679398,1.3861293
		c0.4843826,0.4435177,0.8107529,0.9872901,0.9698563,1.616606c0.1607361,0.6374884,0.2424622,1.6716366,0.2424622,3.0735669
		v15.9263191c0,2.0405083-0.444603,3.5339756-1.3212891,4.438448c-0.8755951,0.9039249-2.297142,1.362154-4.2243195,1.362154
		h-3.1111603v0.8962994h22.7926712v-0.8962994H82.433548C78.8096695,29.4498234,76.9723969,27.740591,76.9723969,24.3706188z"/>
	<path d="M14.4546471,24.3706188V0.7257831H3.2822495v0.920817h0.0945334c1.8108492,0,3.0651217,0.4271718,4.067668,1.3861293
		c0.4846549,0.4435177,0.8110271,0.9872901,0.9698548,1.616606C8.5753126,5.2868237,8.6567688,6.320972,8.6567688,7.7229023
		v15.9263191c0,2.0410538-0.444335,3.5339756-1.3210177,4.438448c-0.8755937,0.9039249-2.2971387,1.362154-4.2245884,1.362154H0
		v0.8962994h22.792944v-0.8962994h-2.8776894C16.2919216,29.4498234,14.4546471,27.740591,14.4546471,24.3706188z"/>
	<path d="M56.2006187,13.0974226c-1.5495872-0.7927752-3.2817039-1.1943378-5.1494904-1.1943378
		c-3.302681,0-5.8460999,1.3556166-7.5605087,4.0287104v-4.3763323c0-3.6069875,0.6211433-6.3198562,1.8462677-8.0623245
		c1.2207642-1.7370205,3.1076202-2.6180625,5.6079941-2.6180625c0.8407211,0,1.6318588,0.0958957,2.3516235,0.2849629
		c0.7186737,0.1879774,1.3054886,0.438614,1.7430153,0.7448264c0.4282608,0.2985846,0.6451149,0.6113354,0.6451149,0.9300796
		c0,0.2740657-0.3258286,0.5933549-0.9671288,0.9480603C53.9759483,4.168222,53.430542,4.601932,53.0959969,5.0732379
		c-0.3378143,0.473485-0.5089035,1.0624809-0.5089035,1.7506418c0,0.9458809,0.3339996,1.7381101,0.9932861,2.3538041
		c0.6581917,0.6151495,1.4989128,0.9268112,2.499279,0.9268112c0.973671,0,1.7936859-0.3410845,2.4377136-1.0139885
		c0.6440277-0.672905,0.9704018-1.5065441,0.9704018-2.4785781c0-1.1948824-0.3928452-2.3162088-1.1681862-3.3329215
		c-0.7726135-1.0139885-1.8291016-1.8225638-3.140583-2.4044764c-1.3103943-0.5802782-2.77771-0.8745037-4.3616219-0.8745037
		c-1.8650627,0-3.7064247,0.3688716-5.4731407,1.0968074c-1.7675323,0.7284807-3.3296509,1.7637186-4.6430435,3.0779262
		c-1.4425201,1.4139171-2.5428696,3.1127973-3.2702599,5.0486922c-0.7273941,1.9348049-1.0962639,4.0684853-1.0962639,6.3421946
		c0,1.5686588,0.1754456,3.100811,0.521431,4.5534134c0.3459892,1.4553261,0.8546181,2.8196602,1.5114479,4.054863
		c0.65765,1.2373829,1.4566917,2.3309212,2.3761444,3.250103c1.1594658,1.1169682,2.49683,1.9811192,3.9750404,2.5679359
		c1.4782143,0.5868149,3.1234245,0.8843098,4.8901405,0.8843098c2.1614685,0,4.1578407-0.4298954,5.932457-1.2782459
		c1.7762527-0.8494396,3.1901665-2.0481358,4.2019768-3.5623093c1.013443-1.5163498,1.5267029-3.2114162,1.5267029-5.0383396
		c0-1.6716366-0.4598618-3.2234039-1.3670578-4.6133461C58.9968529,14.9962664,57.7507515,13.8901968,56.2006187,13.0974226z
		 M53.9034805,26.1414204c-0.1536522,0.7257576-0.3863068,1.3185673-0.6941528,1.7658997
		c-0.805851,1.4035645-2.1598358,2.1151543-4.0248985,2.1151543c-1.1997871,0-2.2423782-0.2827835-3.0989037-0.839632
		c-0.8562508-0.5568504-1.5095406-1.3937588-1.9413414-2.4883862c-0.433712-1.097353-0.6535645-2.4720402-0.6535645-4.0848312
		v-2.6943436c0-1.3300076,0.2585373-2.5243454,0.7682571-3.5503216c0.5091743-1.0254297,1.2341118-1.8350954,2.1543846-2.4066553
		c0.9199982-0.5715609,1.995285-0.8619719,3.1956177-0.8619719c1.3071213,0,2.3281937,0.3726854,3.0359688,1.1082497
		c0.5835495,0.5971689,1.00037,1.3806801,1.2379265,2.3292847c0.2381058,0.9540539,0.359066,2.2916908,0.359066,3.9753151
		C54.2418404,23.235672,54.127964,25.1301575,53.9034805,26.1414204z"/>
	<path d="M109.4020462,16.3916588c-1.1572876-0.9371634-2.8768692-1.8399992-5.112442-2.6839914
		c1.6858063-0.4544144,3.1809082-1.2913227,3.9665985-1.8846779c0.8717804-0.6598282,1.5125351-1.379591,1.9042892-2.1407633
		c0.3912125-0.7617168,0.5889969-1.6236887,0.5889969-2.5613966c0-0.781877-0.1689072-1.5741067-0.5029068-2.3554387
		c-0.3339996-0.7818773-0.8063965-1.4596856-1.4013824-2.011631c-1.7495575-1.750097-5.1091766-2.7537332-9.2168884-2.7537332
		c-2.3581619,0-4.4455338,0.343808-6.204895,1.0216165c-1.7620773,0.679443-3.1269608,1.6710922-4.0564957,2.9477038
		c-0.9289856,1.2771566-1.3997498,2.7945979-1.3997498,4.5098238c0,1.8013144,0.5143509,3.3340111,1.5294266,4.5545025
		c0.9905624,1.1916132,2.628418,2.2889662,4.8688889,3.2615442c-2.5608521,0.6799889-3.6543884,1.3365479-4.810585,2.0307007
		l-0.0234299,0.0136223c-1.2036057,0.7224865-2.0879135,1.5277939-2.628418,2.3946686
		c-0.5405045,0.8668766-0.8140259,1.8765049-0.8140259,3.0000114c0,1.9342594,0.9142838,3.5416031,2.7183228,4.7773514
		c1.08918,0.7502747,2.5303345,1.3381805,4.2837067,1.7484627c1.6994247,0.3972034,3.7878799,0.6162376,5.8796005,0.6162376
		c4.9429932,0,8.6894608-1.1899776,11.1358948-3.5377884c0.7094116-0.6952438,1.2635345-1.504364,1.6460266-2.4050217
		c0.3830414-0.9001122,0.5770111-1.845993,0.5770111-2.8114891C112.3295898,19.9365311,111.3450241,18.00881,109.4020462,16.3916588
		z M91.6825867,20.7821579c0.2784195-0.7949543,0.7382889-1.5267048,1.3665161-2.1756344
		c0.6254959-0.6462078,1.4351654-1.2706184,2.4066544-1.8552551c0.3694153,0.1182346,0.6887054,0.2261162,0.9496918,0.3198338
		c0.2549973,0.0920811,0.5693817,0.2054119,0.9442444,0.3394489c0.3895798,0.1400299,0.7186737,0.2615337,1.0085449,0.3721409
		c0.4636765,0.1634579,0.9382477,0.3345451,1.4101028,0.5083561c0.4642181,0.1716309,0.9524155,0.3645134,1.4515076,0.572649
		c1.5980835,0.6587391,2.9956512,1.3005867,4.1491241,1.9042931c0.4495163,0.2953167,0.8619766,0.6009846,1.2243118,0.907196
		c0.8178329,0.7355633,1.233017,1.6923428,1.233017,2.8441811c0,1.0286999-0.3596039,1.9762135-1.0690155,2.817482
		c-0.7121353,0.8445358-1.7141342,1.5174408-2.9793091,1.9996433c-1.2689819,0.4832935-2.7221298,0.7284813-4.3191223,0.7284813
		c-2.7253952,0-4.7964172-0.5475864-6.155304-1.6269588c-1.3556213-1.0766468-2.0426865-2.7161369-2.0426865-4.8732471
		C91.2608643,22.5137291,91.4030685,21.5776558,91.6825867,20.7821579z M105.1793671,10.651536
		c-0.4293518,0.9344387-1.1578369,1.7882376-2.1658325,2.5390577c-1.0968018-0.3748655-1.9228134-0.6500206-2.4551468-0.8178377
		c-2.7455597-0.9159136-4.8912277-1.77843-6.3743439-2.5619421c-0.5606613-0.3503466-0.9649506-0.6407576-1.2019653-0.864151
		c-0.416275-0.3748655-0.747551-0.8292809-0.9834747-1.3496237S91.642807,6.5100393,91.642807,5.9117808
		c0-1.0145335,0.3067627-1.9053831,0.9104691-2.6485748c0.6064301-0.7459164,1.4798431-1.336002,2.5968094-1.7550009
		c1.1196899-0.4200886,2.4480667-0.6331297,3.9480743-0.6331297c2.2094116,0,3.9028473,0.5377789,5.0328903,1.5980806
		c1.1284103,1.0586669,1.7010574,2.6583819,1.7010574,4.753922C105.8321075,8.5559969,105.6125259,9.7083797,105.1793671,10.651536z
		"/>
	<path d="M31.2584667,25.0326271c-0.7478237-0.4631329-1.5795555-0.581913-2.4682255-0.3514366
		c-0.914278,0.2364712-1.6092491,0.7203083-2.0655727,1.437891c-0.4574108,0.7186737-0.5759182,1.5212555-0.352253,2.3864956
		c0.1626415,0.6293163,0.4582291,1.1273212,0.8788624,1.4803905c0.4170933,0.3514366,1.0183487,0.6195087,1.7852421,0.7960434
		c0.669363,0.1727219,1.0415039,0.3863087,1.1060696,0.6358547c0.074646,0.2893219-0.0493107,0.6255035-0.3688717,0.998188
		c-0.3269176,0.3819466-0.8031273,0.7491837-1.4152794,1.0913582c-0.6393967,0.356884-1.3093033,0.6233215-2.0478649,0.8145676
		l-0.041954,0.0108986v0.8423576l0.0697422-0.0179825c1.4779396-0.3814011,2.7599983-0.997097,3.8102207-1.8285561
		c1.0603027-0.8401756,1.8348236-1.8291016,2.3020439-2.9378967c0.4680367-1.112608,0.5625687-2.2295761,0.2803307-3.3214798
		C32.501297,26.1806507,32.0057449,25.49576,31.2584667,25.0326271z"/>
</g>
</svg>
