<?xml version="1.0" encoding="utf-8"?>
<!-- Generator: Adobe Illustrator 18.0.0, SVG Export Plug-In . SVG Version: 6.00 Build 0)  -->
<!DOCTYPE svg PUBLIC "-//W3C//DTD SVG 1.1//EN" "http://www.w3.org/Graphics/SVG/1.1/DTD/svg11.dtd" [
	<!ENTITY ns_extend "http://ns.adobe.com/Extensibility/1.0/">
	<!ENTITY ns_ai "http://ns.adobe.com/AdobeIllustrator/10.0/">
	<!ENTITY ns_graphs "http://ns.adobe.com/Graphs/1.0/">
	<!ENTITY ns_vars "http://ns.adobe.com/Variables/1.0/">
	<!ENTITY ns_imrep "http://ns.adobe.com/ImageReplacement/1.0/">
	<!ENTITY ns_sfw "http://ns.adobe.com/SaveForWeb/1.0/">
	<!ENTITY ns_custom "http://ns.adobe.com/GenericCustomNamespace/1.0/">
	<!ENTITY ns_adobe_xpath "http://ns.adobe.com/XPath/1.0/">
]>
<svg version="1.1" id="Layer_1" xmlns:x="&ns_extend;" xmlns:i="&ns_ai;" xmlns:graph="&ns_graphs;"
	 xmlns="http://www.w3.org/2000/svg" xmlns:xlink="http://www.w3.org/1999/xlink" x="0px" y="0px"
	 viewBox="0 0 137.6567383 42.972168" enable-background="new 0 0 137.6567383 42.972168" xml:space="preserve">
<metadata>
	<sfw  xmlns="&ns_sfw;">
		<slices></slices>
		<sliceSourceBounds  height="42.972168" width="137.6567383" y="-491.4863281" x="401.1713867" bottomLeftOrigin="true">
			</sliceSourceBounds>
	</sfw>
</metadata>
<g>
	<rect x="1.0000839" y="0.9999065" fill="#FFFFFF" width="135.6568756" height="40.9718666"/>
	<path fill="#2B2A2A" d="M137.6567383,42.972168H0V0h137.6567383V42.972168z M2,40.972168h133.6567383V2H2V40.972168z"/>
</g>
<g>
	<g>
		<path fill="#2B2A2A" d="M60.0585938,15.7851562l2.1748047,7.199707l2.1748047-7.199707h2.4003906L63.3583984,26.284668h-2.0996094
			l-2.25-7.0498047l-2.25,7.0498047h-2.0996094l-3.4501953-10.4995117h2.4003906l2.1748047,7.199707l2.1748047-7.199707H60.0585938z
			"/>
	</g>
	<g>
		<path fill="#2B2A2A" d="M70.1040039,26.4350586c-2.0991211,0-3.8989258-1.8007812-3.8989258-3.8251953
			c0-2.0249023,1.7998047-3.824707,3.8989258-3.824707c2.1015625,0,3.9003906,1.7998047,3.9003906,3.824707
			C74.0043945,24.6342773,72.2055664,26.4350586,70.1040039,26.4350586z M70.1040039,24.5600586
			c0.9765625,0,1.8007812-0.8251953,1.8007812-1.9501953s-0.8242188-1.9501953-1.8007812-1.9501953
			c-0.9741211,0-1.7993164,0.8251953-1.7993164,1.9501953S69.1298828,24.5600586,70.1040039,24.5600586z"/>
	</g>
	<g>
		<path fill="#2B2A2A" d="M79.1782227,20.8847656c0,0-0.2265625-0.074707-0.6757812-0.074707
			c-1.0507812,0-1.7246094,0.6748047-1.7246094,1.9492188v3.5253906h-2.0253906v-7.3496094h2.0253906v0.8999023
			c0,0,0.75-0.9750977,2.0996094-0.9750977h0.3007812V20.8847656z"/>
	</g>
	<g>
		<path fill="#2B2A2A" d="M81.6508789,24.4848633v1.7998047h-2.0253906V15.7851562h2.0253906v6.1499023l2.625-3h2.3242188
			l-2.7753906,3.1499023l2.9257812,4.199707h-2.25l-1.9511719-2.8496094L81.6508789,24.4848633z"/>
	</g>
</g>
</svg>
